<?xml version="1.0" standalone="no"?>
<!DOCTYPE svg PUBLIC "-//W3C//DTD SVG 20010904//EN"
 "http://www.w3.org/TR/2001/REC-SVG-20010904/DTD/svg10.dtd">
<svg version="1.0" xmlns="http://www.w3.org/2000/svg"
 width="138.000000pt" height="138.000000pt" viewBox="0 0 138.000000 138.000000"
 preserveAspectRatio="xMidYMid meet">
<metadata>
Created by potrace 1.14, written by Peter Selinger 2001-2017
</metadata>
<g transform="translate(0.000000,138.000000) scale(0.100000,-0.100000)"
fill="#000000" stroke="none">
<path d="M613 1259 c7 -19 58 -144 112 -279 54 -135 100 -247 101 -249 2 -2
25 17 51 42 26 25 73 68 103 96 52 48 54 52 36 65 -10 8 -35 30 -55 48 -99 91
-343 303 -352 307 -6 1 -4 -12 4 -30z"/>
<path d="M574 1248 c-4 -18 -9 -42 -11 -53 -2 -11 -48 -198 -103 -415 -55
-217 -102 -404 -104 -415 -6 -28 -46 -196 -52 -217 -5 -17 7 -18 155 -18 146
0 161 2 162 18 1 21 -2 201 -5 304 -2 43 1 78 6 78 5 0 7 -4 3 -9 -3 -6 5 -15
17 -22 12 -7 28 -17 34 -23 13 -13 47 -42 134 -116 36 -30 83 -71 105 -91 22
-20 60 -55 85 -78 25 -22 48 -41 52 -41 4 0 -2 24 -13 52 -12 29 -26 67 -32
83 -6 17 -16 39 -23 50 -7 11 -13 23 -14 27 -1 16 -120 303 -137 332 -10 18
-13 19 -34 4 -13 -9 -50 -41 -82 -72 -32 -31 -62 -56 -67 -56 -4 0 -11 -7 -14
-16 -12 -32 -23 -2 -26 73 -1 43 -3 110 -5 148 -1 39 -6 167 -10 285 -4 118
-8 216 -10 218 -2 2 -6 -12 -11 -30z"/>
</g>
</svg>
